<svg xmlns="http://www.w3.org/2000/svg" viewBox="0 0 622.21 622.21"><defs><style>.a{fill:#fff;}.b{fill:#555;}.c{fill:#222;}</style></defs><circle class="a" cx="311.11" cy="311.11" r="311.11"/><path class="b" d="M447.69,398.34l-31.36,34.42v83.65H339.86V199.24h76.47V339.09l26.57-40.3,68.4-99.55h94.54L498.67,339.52,605.84,516.41H515.22Z" transform="translate(-48.89 -48.89)"/><path class="c" d="M256.62,199.24h76.24V416.86q0,30.27-14.05,54a95.8,95.8,0,0,1-39.21,36.81q-25.16,13.08-56.09,13.07-51.84,0-80.6-26.14t-28.75-74.06h76.67q0,21.78,7.52,31.59t25.16,9.8q15.9,0,24.51-11.87t8.6-33.22Z" transform="translate(-48.89 -48.89)"/></svg>