<svg xmlns="http://www.w3.org/2000/svg" viewBox="0 0 360 288">
<defs><style>.a{fill:#222;}</style></defs>
<path class="a" d="M86.75293,225.17069a19.92941,19.92941,0,0,1-13.50586-5.25391L6.48828,158.74686a20.00106,20.00106,0,0,1,0-29.49218l66.75879-61.1709A20.00034,20.00034,0,0,1,100.27051,97.576l-50.666,46.42481,50.666,46.42383a20,20,0,0,1-13.51758,34.74609Z"/>
<path class="a" d="M273.24707,62.82931a19.92941,19.92941,0,0,1,13.50586,5.25391l66.75879,61.16992a20.00106,20.00106,0,0,1,0,29.49218l-66.75879,61.1709A20.00034,20.00034,0,1,1,259.72949,190.424l50.666-46.42481-50.666-46.42383a20,20,0,0,1,13.51758-34.74609Z"/>
<path class="a" d="M137.76777,287.99959A20.19129,20.19129,0,0,1,118.67161,261.306L203.14075,13.66622a20.17405,20.17405,0,1,1,38.18739,13.02663L156.86,274.33267A20.18475,20.18475,0,0,1,137.76777,287.99959Z"/>
</svg>