<svg xmlns="http://www.w3.org/2000/svg" viewBox="0 0 360 288">
<defs><style>.a{fill:#222;}</style></defs>
<path class="a" d="M349.18286,216H10.8A10.8,10.8,0,0,0,0,226.8v50.38287A10.81718,10.81718,0,0,0,10.8172,288H349.18286A10.81717,10.81717,0,0,0,360,277.18286V226.81714A10.81717,10.81717,0,0,0,349.18286,216ZM353,277.18286A3.8214,3.8214,0,0,1,349.18286,281H10.8172A3.82141,3.82141,0,0,1,7,277.18286V226.8a3.80431,3.80431,0,0,1,3.8-3.8H39.22223v33.11133h7V223H78.44446v33.11133h7V223h32.22223v33.11133h7V223h32.22223v33.11133h7V223h32.22216v33.11133h7V223h32.22223v33.11133h7V223h32.22223v33.11133h7V223h32.22223v33.11133h7V223h28.40509A3.82144,3.82144,0,0,1,353,226.81714Z"/>
<path class="a" d="M332.48028,166.70231l-51.8276-62.1899,0,.00011L56.93407,5.89075,50.8835,19.61616l223.61228,98.57493-1.61349,3.66014L49.27,23.2763,43.21939,37.00182l223.61228,98.57493-1.6135,3.66014L41.60589,40.662,35.55537,54.38727l223.61228,98.57492-1.6135,3.66014L33.94187,58.04741,27.89125,71.77293l223.71856,98.62178,0,.00011Zm-49.97671-49.03494,35.57295,42.68534-55.50715,2.53439Z"/>
<path class="a" d="M50.53028,3.06777A35.99982,35.99982,0,1,0,21.48746,68.95Z"/>
</svg>