<svg xmlns="http://www.w3.org/2000/svg" viewBox="0 0 360 288">
<defs><style>.a{fill:#222;}</style></defs>
<circle class="a" cx="180" cy="164.69128" r="64.04882" transform="translate(-24.05632 30.95933) rotate(-9.21746)"/>
<path class="a" d="M284.04883,164.69141A104.04885,104.04885,0,1,1,104.69055,92.96582H0V252a36.10585,36.10585,0,0,0,36,36H324a36.10585,36.10585,0,0,0,36-36V92.96582H255.30945A103.68535,103.68535,0,0,1,284.04883,164.69141Z"/>
<path class="a" d="M324,41.38263h-2.5921V37.10638a7.22116,7.22116,0,0,0-7.2-7.2h-21.6a7.22116,7.22116,0,0,0-7.2,7.2v4.27625h-6.8609L249.85278,0H110.14722L81.45306,41.38263H36a36.10585,36.10585,0,0,0-36,36v5.58319H115.6723a103.8447,103.8447,0,0,1,128.6554,0H360V77.38263A36.10585,36.10585,0,0,0,324,41.38263Z"/>
</svg>